<svg width="181" height="48" viewBox="0 0 181 48" fill="none" xmlns="http://www.w3.org/2000/svg">
<path d="M43.9668 13.4394C45.8538 17.5943 46.0407 24.7462 46.0407 24.7462C46.0407 24.7462 40.8312 19.3458 36.9909 16.5319C34.8798 14.985 31.5233 10.1531 35.1998 7.6411C37.9051 5.79271 42.247 9.65289 43.9668 13.4394Z" fill="#3EB3E1"/>
<path d="M23.1899 0.980594C18.0068 0.920964 12.6318 3.30182 12.6318 3.30182C12.6318 3.30182 19.5151 3.88099 23.1899 10.5497C25.6964 15.0982 29.6944 22.1464 29.6944 22.1464C29.6944 22.1464 32.7143 27.4602 35.8235 32.1962C37.2191 34.3219 41.8453 35.9263 44.0249 33.3559C45.967 31.0655 43.7404 27.4609 42.3264 26.3019C39.2014 23.7405 35.4448 21.1794 32.6167 17.1212C30.6106 14.2424 29.2885 11.348 30.9199 8.2304C31.9746 6.21488 35.4448 4.65476 35.4448 4.65476C35.4448 4.65476 28.7534 1.0446 23.1899 0.980594Z" fill="#1E80A6"/>
<path d="M12.2555 5.62791C7.54204 5.39088 4.33691 9.78339 4.33691 9.78339C4.33691 9.78339 9.89086 9.96941 12.8194 14.4227C18.6657 23.3128 21.3874 31.8718 28.0909 39.2589C29.4058 40.7078 33.242 41.9738 36.4808 41.0951C38.959 40.4227 41.8541 37.2295 41.8541 37.2295C41.8541 37.2295 39.4875 37.0023 38.0834 36.4564C34.748 35.1597 31.4846 29.9816 31.4846 29.9816L20.4552 11.0403C20.4552 11.0403 18.0075 5.91717 12.2555 5.62791Z" fill="#3EB3E1"/>
<path d="M11.7218 17.5458C9.64958 14.0661 5.03042 11.7842 2.8606 14.6466C1.25102 16.7699 1.72556 19.4502 3.6164 21.3141C6.06738 23.73 11.1562 27.8862 11.1562 27.8862C11.1562 27.8862 17.1092 33.2904 16.2467 37.4534C15.0454 43.2517 11.1562 43.5417 11.1562 43.5417C11.1562 43.5417 16.4496 46.8754 22.9398 47.0177C27.1801 47.1106 33.4978 44.8946 33.4978 44.8946C33.4978 44.8946 30.5755 44.279 28.7844 43.2517C25.8279 41.5562 22.9398 36.6803 22.9398 36.6803C22.9398 36.6803 16.1533 24.9869 11.7218 17.5458Z" fill="#1E80A6"/>
<path d="M3.67631 36.5437C-0.186843 31.8084 0.00148636 22.8203 0.00148636 22.8203C0.00148636 22.8203 5.75186 28.3287 10.1808 31.8084C12.4914 33.6237 13.635 37.4263 11.4063 39.3462C9.05126 41.375 5.73051 39.0617 3.67631 36.5437Z" fill="#3EB3E1"/>
<path d="M75.5234 22.0622C74.2417 22.0622 73.0415 21.8177 71.9227 21.3287C70.804 20.8397 69.8223 20.1618 68.9777 19.295C68.1331 18.4207 67.47 17.4094 66.9885 16.2611C66.5143 15.1053 66.2772 13.868 66.2772 12.5493C66.2772 11.2305 66.5143 9.99696 66.9885 8.84859C67.47 7.69282 68.1331 6.68152 68.9777 5.8147C69.8223 4.94046 70.804 4.25885 71.9227 3.76987C73.0415 3.28089 74.2417 3.0364 75.5234 3.0364C76.8051 3.0364 78.0053 3.28089 79.1241 3.76987C80.2428 4.25885 81.2245 4.94046 82.0691 5.8147C82.9137 6.68152 83.573 7.69282 84.0472 8.84859C84.5288 9.99696 84.7696 11.2305 84.7696 12.5493C84.7696 13.868 84.5288 15.1053 84.0472 16.2611C83.573 17.4094 82.9137 18.4207 82.0691 19.295C81.2245 20.1618 80.2428 20.8397 79.1241 21.3287C78.0053 21.8177 76.8051 22.0622 75.5234 22.0622ZM75.5123 18.5949C76.2976 18.5949 77.0163 18.4467 77.6682 18.1503C78.3202 17.854 78.887 17.4354 79.3686 16.8945C79.8501 16.3537 80.2243 15.7165 80.491 14.9831C80.7577 14.2422 80.8911 13.4309 80.8911 12.5493C80.8911 11.6676 80.7577 10.8601 80.491 10.1266C80.2243 9.38573 79.8501 8.74487 79.3686 8.20403C78.887 7.66319 78.3202 7.24459 77.6682 6.94824C77.0163 6.65189 76.2976 6.50371 75.5123 6.50371C74.7418 6.50371 74.0268 6.65189 73.3674 6.94824C72.7155 7.24459 72.1487 7.66319 71.6671 8.20403C71.1856 8.74487 70.8114 9.38573 70.5447 10.1266C70.2854 10.8601 70.1557 11.6676 70.1557 12.5493C70.1557 13.4309 70.2854 14.2422 70.5447 14.9831C70.8114 15.7165 71.1856 16.3537 71.6671 16.8945C72.1487 17.4354 72.7155 17.854 73.3674 18.1503C74.0268 18.4467 74.7418 18.5949 75.5123 18.5949ZM88.4263 21.7065V3.3698H92.027L99.9285 15.7054V3.3698H103.529V21.7065H99.9285L92.027 9.37091V21.7065H88.4263ZM108.526 21.7065V3.3698H114.771C116.023 3.3698 117.109 3.59206 118.027 4.03659C118.953 4.47371 119.668 5.10716 120.172 5.93694C120.683 6.75932 120.939 7.75209 120.939 8.91527C120.939 9.83396 120.776 10.6637 120.45 11.4046C120.124 12.1381 119.657 12.7567 119.05 13.2605C118.442 13.7643 117.705 14.1385 116.838 14.383L122.839 21.7065H118.272L112.982 14.7941H112.126V21.7065H108.526ZM112.126 11.7936H113.66C114.408 11.7936 115.042 11.6862 115.56 11.4713C116.079 11.2564 116.475 10.9416 116.749 10.5267C117.031 10.1044 117.172 9.60059 117.172 9.01529C117.172 8.12624 116.864 7.44463 116.249 6.97047C115.642 6.4889 114.779 6.24811 113.66 6.24811H112.126V11.7936ZM133.216 22.0622C131.935 22.0622 130.734 21.8177 129.616 21.3287C128.497 20.8397 127.515 20.1618 126.671 19.295C125.826 18.4207 125.163 17.4094 124.681 16.2611C124.207 15.1053 123.97 13.868 123.97 12.5493C123.97 11.2305 124.207 9.99696 124.681 8.84859C125.163 7.69282 125.826 6.68152 126.671 5.8147C127.515 4.94046 128.497 4.25885 129.616 3.76987C130.734 3.28089 131.935 3.0364 133.216 3.0364C134.498 3.0364 135.698 3.28089 136.817 3.76987C137.936 4.25885 138.917 4.94046 139.762 5.8147C140.607 6.68152 141.266 7.69282 141.74 8.84859C142.222 9.99696 142.463 11.2305 142.463 12.5493C142.463 13.868 142.222 15.1053 141.74 16.2611C141.266 17.4094 140.607 18.4207 139.762 19.295C138.917 20.1618 137.936 20.8397 136.817 21.3287C135.698 21.8177 134.498 22.0622 133.216 22.0622ZM133.205 18.5949C133.991 18.5949 134.709 18.4467 135.361 18.1503C136.013 17.854 136.58 17.4354 137.062 16.8945C137.543 16.3537 137.917 15.7165 138.184 14.9831C138.451 14.2422 138.584 13.4309 138.584 12.5493C138.584 11.6676 138.451 10.8601 138.184 10.1266C137.917 9.38573 137.543 8.74487 137.062 8.20403C136.58 7.66319 136.013 7.24459 135.361 6.94824C134.709 6.65189 133.991 6.50371 133.205 6.50371C132.435 6.50371 131.72 6.65189 131.06 6.94824C130.408 7.24459 129.842 7.66319 129.36 8.20403C128.879 8.74487 128.504 9.38573 128.238 10.1266C127.978 10.8601 127.849 11.6676 127.849 12.5493C127.849 13.4309 127.978 14.2422 128.238 14.9831C128.504 15.7165 128.879 16.3537 129.36 16.8945C129.842 17.4354 130.408 17.854 131.06 18.1503C131.72 18.4467 132.435 18.5949 133.205 18.5949ZM143.83 21.7065L151.198 3.3698H154.543L161.9 21.7065H158.022L156.466 17.528H149.264L147.709 21.7065H143.83ZM150.498 14.3718H155.243L152.865 8.22626L150.498 14.3718ZM164.612 21.7065V3.3698H169.647C170.951 3.3698 172.162 3.60317 173.281 4.06993C174.399 4.53668 175.377 5.18866 176.215 6.02585C177.059 6.86304 177.715 7.8373 178.182 8.94861C178.656 10.0599 178.893 11.2602 178.893 12.5493C178.893 13.8458 178.659 15.0497 178.193 16.1611C177.726 17.265 177.07 18.2355 176.226 19.0727C175.388 19.9025 174.407 20.5508 173.281 21.0175C172.162 21.4769 170.951 21.7065 169.647 21.7065H164.612ZM168.213 18.4837H169.247C170.076 18.4837 170.843 18.3355 171.547 18.0392C172.251 17.7428 172.862 17.3279 173.381 16.7945C173.899 16.2611 174.303 15.635 174.592 14.9164C174.881 14.1903 175.025 13.3976 175.025 12.5382C175.025 11.6862 174.881 10.9008 174.592 10.1822C174.303 9.45611 173.899 8.82637 173.381 8.29294C172.862 7.75209 172.251 7.3335 171.547 7.03715C170.843 6.7408 170.076 6.59262 169.247 6.59262H168.213V18.4837Z" fill="currentColor"/>
<path d="M67.0321 41.2939V29.506H72.969V30.4634H68.1181V34.907H72.7975V35.8644H68.1181V40.3366H72.969V41.2939H67.0321ZM76.1438 41.2939V29.506H77.2297V40.3366H82.1663V41.2939H76.1438ZM84.8786 41.2939V29.506H87.5363C88.3698 29.506 89.1461 29.6561 89.8653 29.9561C90.5892 30.2562 91.2203 30.6753 91.7585 31.2135C92.2967 31.7469 92.7182 32.3709 93.023 33.0853C93.3278 33.7997 93.4802 34.5736 93.4802 35.4071C93.4802 36.2359 93.3302 37.0074 93.0302 37.7219C92.7301 38.4363 92.3086 39.0626 91.7656 39.6008C91.2274 40.1342 90.5964 40.5509 89.8724 40.851C89.1533 41.1463 88.3745 41.2939 87.5363 41.2939H84.8786ZM85.9646 40.3223H87.4363C88.1316 40.3223 88.7746 40.1985 89.3652 39.9508C89.9605 39.6984 90.4797 39.3507 90.9226 38.9078C91.3703 38.4601 91.718 37.9386 91.9657 37.3432C92.2133 36.7431 92.3372 36.0954 92.3372 35.4C92.3372 34.7046 92.2133 34.0593 91.9657 33.4639C91.718 32.8686 91.3703 32.347 90.9226 31.8993C90.4797 31.4516 89.9605 31.104 89.3652 30.8563C88.7698 30.6039 88.1269 30.4776 87.4363 30.4776H85.9646V40.3223Z" fill="currentColor"/>
</svg>
