<svg width="26" height="26" viewBox="0 0 26 26" fill="none" xmlns="http://www.w3.org/2000/svg">
<g clip-path="url(#clip0_2713_20111)">
<path d="M19.1283 18.0451L14.5318 22.6417C14.1255 23.0475 12.9998 24 12.9998 24C12.9998 24 11.8754 23.0475 11.4692 22.6417L6.87151 18.0451C5.6595 16.833 4.83412 15.2887 4.49975 13.6076C4.16538 11.9264 4.33704 10.1839 4.99301 8.60028C5.64898 7.01668 6.75981 5.66316 8.18503 4.71087C9.61024 3.75858 11.2858 3.25031 12.9999 3.25031C14.714 3.25031 16.3896 3.75858 17.8148 4.71087C19.24 5.66316 20.3509 7.01668 21.0068 8.60028C21.6628 10.1839 21.8345 11.9264 21.5001 13.6076C21.1657 15.2887 20.3404 16.833 19.1283 18.0451Z" fill="black" stroke="black" stroke-width="2" stroke-linecap="round" stroke-linejoin="round"/>
<rect x="6" y="5" width="14" height="14" rx="7" fill="white"/>
<path d="M10.2105 12.598V14.116H11.2545V14.5H9.73054V10.3H11.2365V10.684H10.2105V12.214H11.1465V12.598H10.2105ZM12.3548 14.5H11.8868V10.3H12.3848L13.3628 13.372V10.3H13.8308V14.5H13.3328L12.3548 11.434V14.5ZM14.588 14.5V10.3H15.404C15.708 10.3 15.942 10.398 16.106 10.594C16.27 10.786 16.352 11.136 16.352 11.644V13.156C16.352 13.664 16.27 14.016 16.106 14.212C15.942 14.404 15.708 14.5 15.404 14.5H14.588ZM15.878 13.264V11.542C15.878 10.97 15.72 10.684 15.404 10.684H15.068V14.122H15.404C15.72 14.122 15.878 13.836 15.878 13.264Z" fill="black"/>
</g>
<defs>
<clipPath id="clip0_2713_20111">
<rect width="26" height="26" fill="white"/>
</clipPath>
</defs>
</svg>
