<svg width="26" height="26" viewBox="0 0 26 26" fill="none" xmlns="http://www.w3.org/2000/svg">
<g clip-path="url(#clip0_2713_20116)">
<path d="M19.1283 18.0451L14.5318 22.6417C14.1255 23.0475 12.9998 24 12.9998 24C12.9998 24 11.8754 23.0475 11.4692 22.6417L6.87151 18.0451C5.6595 16.833 4.83412 15.2887 4.49975 13.6076C4.16538 11.9264 4.33704 10.1839 4.99301 8.60028C5.64898 7.01668 6.75981 5.66316 8.18503 4.71087C9.61024 3.75858 11.2858 3.25031 12.9999 3.25031C14.714 3.25031 16.3896 3.75858 17.8148 4.71087C19.24 5.66316 20.3509 7.01668 21.0068 8.60028C21.6628 10.1839 21.8345 11.9264 21.5001 13.6076C21.1657 15.2887 20.3404 16.833 19.1283 18.0451Z" fill="black" stroke="black" stroke-width="2" stroke-linecap="round" stroke-linejoin="round"/>
<rect x="6" y="5" width="14" height="14" rx="7" fill="white"/>
<path d="M9.42972 13.558C9.42972 13.238 9.32172 12.992 9.10572 12.82L8.62572 12.466C8.26572 12.21 8.08572 11.832 8.08572 11.332C8.08572 10.916 8.16372 10.626 8.31972 10.462C8.47972 10.294 8.69572 10.21 8.96772 10.21C9.24372 10.21 9.45772 10.288 9.60972 10.444C9.76172 10.596 9.85372 10.874 9.88572 11.278L9.42972 11.38C9.41372 10.868 9.26372 10.612 8.97972 10.612C8.69972 10.612 8.55972 10.83 8.55972 11.266C8.55972 11.458 8.57972 11.614 8.61972 11.734C8.66372 11.854 8.74572 11.962 8.86572 12.058L9.33972 12.412C9.45172 12.492 9.54172 12.568 9.60972 12.64C9.67772 12.712 9.74172 12.828 9.80172 12.988C9.86572 13.144 9.89772 13.33 9.89772 13.546C9.89772 13.93 9.81372 14.2 9.64572 14.356C9.48172 14.512 9.25772 14.59 8.97372 14.59C8.68972 14.59 8.46772 14.498 8.30772 14.314C8.14772 14.13 8.04972 13.802 8.01372 13.33L8.46372 13.252C8.47972 13.592 8.52772 13.834 8.60772 13.978C8.69172 14.122 8.80772 14.194 8.95572 14.194C9.27172 14.194 9.42972 13.982 9.42972 13.558ZM10.2303 10.684V10.3H11.8683V10.684H11.2863V14.5H10.8123V10.684H10.2303ZM13.5575 14.5L13.3715 13.408H12.5255L12.3455 14.5H11.8655L12.6335 10.3H13.2695L14.0375 14.5H13.5575ZM12.9515 10.906L12.5915 13.024H13.3055L12.9515 10.906ZM14.5089 14.5V10.3H15.2529C15.5489 10.3 15.7789 10.394 15.9429 10.582C16.1069 10.77 16.1889 11.108 16.1889 11.596V11.626C16.1889 12.234 16.0409 12.62 15.7449 12.784L16.2429 14.5H15.7509L15.2829 12.892H14.9889V14.5H14.5089ZM15.7149 11.686V11.506C15.7149 11.198 15.6729 10.984 15.5889 10.864C15.5089 10.744 15.3969 10.684 15.2529 10.684H14.9889V12.514H15.2529C15.5609 12.514 15.7149 12.238 15.7149 11.686ZM16.5233 10.684V10.3H18.1613V10.684H17.5793V14.5H17.1053V10.684H16.5233Z" fill="black"/>
</g>
<defs>
<clipPath id="clip0_2713_20116">
<rect width="26" height="26" fill="white"/>
</clipPath>
</defs>
</svg>
