<svg width="24" height="24" viewBox="0 0 24 24" fill="none" xmlns="http://www.w3.org/2000/svg">
<g clip-path="url(#clip0_2_468)">
<path d="M11.9548 3.00002L20.0865 20.3241C20.1232 20.4229 20.1308 20.53 20.1083 20.6329C20.0859 20.7358 20.0343 20.8301 19.9599 20.9046C19.8854 20.9791 19.7911 21.0306 19.6882 21.053C19.5853 21.0755 19.4782 21.0679 19.3794 21.0312L11.9548 18.5564L4.53019 21.0312C4.43147 21.0679 4.32429 21.0755 4.2214 21.053C4.1185 21.0306 4.02422 20.9791 3.94975 20.9046C3.87528 20.8301 3.82375 20.7358 3.8013 20.6329C3.77885 20.53 3.78641 20.4229 3.82308 20.3241L11.9548 3.00002Z" fill="#27AE60" stroke="white" stroke-linecap="round" stroke-linejoin="round"/>
</g>
<defs>
<clipPath id="clip0_2_468">
<rect width="24" height="24" fill="white"/>
</clipPath>
</defs>
</svg>
