<?xml version="1.0" standalone="no"?>
<!DOCTYPE svg PUBLIC "-//W3C//DTD SVG 20010904//EN"
 "http://www.w3.org/TR/2001/REC-SVG-20010904/DTD/svg10.dtd">
<svg version="1.0" xmlns="http://www.w3.org/2000/svg"
 width="700.000000pt" height="700.000000pt" viewBox="0 0 700.000000 700.000000"
 preserveAspectRatio="xMidYMid meet">
<metadata>
Created by potrace 1.14, written by Peter Selinger 2001-2017
</metadata>
<g transform="translate(0.000000,700.000000) scale(0.100000,-0.100000)"
fill="#000000" stroke="none">
<path d="M3288 6645 c-2 -2 -30 -6 -63 -10 -33 -3 -71 -8 -85 -10 -14 -3 -47
-7 -75 -11 -27 -3 -52 -8 -55 -9 -3 -2 -26 -6 -50 -10 -174 -25 -497 -116
-739 -208 -142 -54 -144 -56 -48 -70 260 -39 630 -209 867 -399 220 -177 374
-374 565 -723 73 -133 530 -951 657 -1172 10 -18 28 -50 39 -70 371 -657 884
-1496 997 -1631 92 -110 258 -205 452 -259 78 -22 269 -26 348 -8 167 39 313
166 359 312 21 66 24 203 6 277 -8 34 -16 68 -18 76 -13 60 -90 207 -160 305
-68 95 -113 136 -426 387 -449 359 -632 527 -847 773 -62 71 -242 312 -242
324 0 5 -3 11 -7 13 -23 10 -158 256 -206 376 -66 163 -91 376 -61 514 8 34
17 74 20 88 8 40 55 140 92 199 81 130 283 289 520 411 l74 38 -124 60 c-147
72 -404 182 -423 182 -8 0 -16 4 -19 9 -3 5 -16 11 -28 14 -13 2 -84 26 -158
52 -216 75 -482 141 -640 160 -25 3 -56 9 -70 12 -27 6 -446 14 -452 8z"/>
<path d="M1885 6009 c-145 -15 -272 -53 -400 -116 -71 -36 -232 -137 -250
-157 -5 -6 -23 -22 -40 -35 -68 -51 -245 -234 -245 -251 0 -5 8 -8 18 -8 31 2
125 -13 217 -33 281 -63 545 -198 726 -371 105 -101 165 -180 306 -404 75
-119 280 -468 363 -619 87 -157 151 -275 190 -350 138 -263 455 -855 480 -895
6 -8 50 -86 100 -173 165 -289 314 -517 502 -770 75 -101 165 -214 188 -237 3
-3 37 -43 77 -90 84 -101 124 -138 195 -184 108 -69 275 -134 408 -160 14 -3
50 -10 80 -16 72 -15 318 -20 395 -9 197 31 330 90 520 232 122 92 363 312
352 323 -2 2 -34 8 -73 13 -82 12 -139 21 -168 27 -11 2 -34 7 -51 9 -61 11
-207 56 -258 80 -211 101 -441 309 -678 615 -122 158 -169 230 -351 543 -100
172 -204 350 -231 397 -27 47 -74 128 -105 180 -30 52 -110 190 -178 306 -68
117 -132 227 -142 245 -22 39 -663 1139 -723 1241 -108 184 -295 372 -483 487
-220 135 -508 205 -741 180z"/>
<path d="M5377 5805 c-1 -2 -25 -5 -53 -8 -131 -14 -293 -147 -348 -287 -26
-65 -30 -94 -29 -200 1 -77 7 -113 33 -190 76 -232 240 -453 460 -619 74 -56
316 -255 390 -320 222 -196 467 -429 712 -676 l109 -110 -6 100 c-10 174 -19
280 -31 380 -4 28 -8 64 -9 80 -10 100 -49 338 -79 475 -3 14 -8 39 -12 55 -9
49 -81 299 -95 330 -4 11 -20 49 -34 85 -45 111 -182 344 -237 401 -7 8 -31
36 -53 64 -149 185 -387 362 -555 411 -51 15 -157 34 -163 29z"/>
<path d="M1000 4946 c-224 -47 -395 -297 -389 -567 3 -128 41 -247 118 -369
71 -115 391 -411 901 -835 408 -339 659 -625 819 -937 116 -224 151 -382 127
-560 -6 -46 -58 -233 -75 -273 -102 -234 -206 -371 -356 -469 -84 -55 -164
-90 -228 -102 -37 -6 -37 -7 -17 -21 27 -19 271 -143 335 -170 213 -90 510
-189 624 -209 14 -3 53 -11 86 -19 69 -15 228 -40 330 -52 92 -10 390 -10 485
0 283 30 652 113 1035 233 123 39 155 54 115 54 -29 0 -133 27 -270 71 -289
92 -431 175 -622 361 -212 207 -439 516 -627 851 -29 51 -45 80 -143 247 -509
872 -1066 1820 -1156 1970 -25 41 -50 84 -56 95 -30 57 -151 245 -177 275 -98
114 -132 149 -209 209 -225 179 -459 257 -650 217z"/>
<path d="M354 3495 c3 -93 8 -181 10 -195 2 -14 7 -59 11 -100 17 -197 69
-489 119 -665 86 -307 206 -560 351 -740 68 -86 239 -254 313 -308 137 -101
249 -156 365 -180 327 -69 595 202 545 552 -16 114 -36 177 -86 276 -76 148
-130 207 -342 379 -114 93 -394 329 -410 346 -3 3 -39 34 -80 70 -41 36 -77
67 -80 70 -3 3 -48 43 -100 90 -112 101 -207 187 -334 304 -32 29 -264 247
-280 263 -4 4 -6 -66 -2 -162z"/>
</g>
</svg>
